<mxfile host="app.diagrams.net" agent="Mozilla/5.0 (Windows NT 10.0; Win64; x64) AppleWebKit/537.36 (KHTML, like Gecko) Chrome/136.0.0.0 Safari/537.36" version="24.7.17" pages="2">
  <diagram name="Model In/Out" id="FkHQH0yl_0u4hdJqcBx1">
    <mxGraphModel dx="1646" dy="764" grid="1" gridSize="10" guides="1" tooltips="1" connect="1" arrows="1" fold="1" page="1" pageScale="1" pageWidth="1400" pageHeight="850" math="1" shadow="0">
      <root>
        <mxCell id="0" />
        <mxCell id="1" parent="0" />
        <mxCell id="G6jUvV0o-YsME8dWzTxC-77" value="" style="rounded=1;whiteSpace=wrap;html=1;strokeColor=#ae4132;strokeWidth=2;align=right;verticalAlign=bottom;fontFamily=Helvetica;fontSize=12;labelBackgroundColor=default;resizable=1;fillColor=#fad9d5;arcSize=27;dashed=1;dashPattern=8 8;imageAspect=0;" vertex="1" parent="1">
          <mxGeometry x="110" y="527" width="880" height="40" as="geometry" />
        </mxCell>
        <mxCell id="G6jUvV0o-YsME8dWzTxC-19" style="edgeStyle=orthogonalEdgeStyle;rounded=0;orthogonalLoop=1;jettySize=auto;html=1;exitX=0.5;exitY=1;exitDx=0;exitDy=0;entryX=0.5;entryY=0;entryDx=0;entryDy=0;movable=1;resizable=1;rotatable=1;deletable=1;editable=1;locked=0;connectable=1;strokeWidth=3;" edge="1" parent="1" source="2" target="G6jUvV0o-YsME8dWzTxC-20">
          <mxGeometry relative="1" as="geometry">
            <mxPoint x="550" y="452" as="targetPoint" />
          </mxGeometry>
        </mxCell>
        <mxCell id="2" value="Base Model" style="whiteSpace=wrap;strokeWidth=2;movable=1;resizable=1;rotatable=1;deletable=1;editable=1;locked=0;connectable=1;rounded=1;perimeterSpacing=3;fontSize=20;fontStyle=1;fillColor=#dae8fc;gradientColor=#7ea6e0;strokeColor=#6c8ebf;opacity=50;" parent="1" vertex="1">
          <mxGeometry x="476" y="260" width="147" height="49" as="geometry" />
        </mxCell>
        <mxCell id="3" value="Local Expert" style="whiteSpace=wrap;strokeWidth=2;movable=1;resizable=1;rotatable=1;deletable=1;editable=1;locked=0;connectable=1;rounded=1;shadow=0;imageAlign=center;imageWidth=22;arcSize=17;fontSize=18;fontStyle=3;fillColor=#d5e8d4;gradientColor=#97d077;strokeColor=#82b366;opacity=30;" parent="1" vertex="1">
          <mxGeometry x="78" y="362" width="170" height="50" as="geometry" />
        </mxCell>
        <mxCell id="4" value="Local Expert" style="whiteSpace=wrap;strokeWidth=2;flipH=1;movable=1;resizable=1;rotatable=1;deletable=1;editable=1;locked=0;connectable=1;glass=0;rounded=1;fontSize=18;fontStyle=3;fillColor=#d5e8d4;gradientColor=#97d077;strokeColor=#82b366;opacity=30;" parent="1" vertex="1">
          <mxGeometry x="273" y="362" width="170" height="50" as="geometry" />
        </mxCell>
        <mxCell id="5" value="Local Expert" style="whiteSpace=wrap;strokeWidth=2;flipH=1;movable=1;resizable=1;rotatable=1;deletable=1;editable=1;locked=0;connectable=1;rounded=1;shadow=0;imageAlign=center;imageWidth=22;arcSize=17;fontSize=18;fontStyle=3;fillColor=#d5e8d4;gradientColor=#97d077;strokeColor=#82b366;opacity=30;" parent="1" vertex="1">
          <mxGeometry x="660" y="362" width="170" height="50" as="geometry" />
        </mxCell>
        <mxCell id="6" value="Local Expert" style="whiteSpace=wrap;strokeWidth=2;flipH=1;movable=1;resizable=1;rotatable=1;deletable=1;editable=1;locked=0;connectable=1;rounded=1;shadow=0;imageAlign=center;imageWidth=22;arcSize=17;fontSize=18;fontStyle=3;fillColor=#d5e8d4;gradientColor=#97d077;strokeColor=#82b366;opacity=30;" parent="1" vertex="1">
          <mxGeometry x="853" y="362" width="170" height="50" as="geometry" />
        </mxCell>
        <mxCell id="7" value="&lt;pre&gt;&lt;font face=&quot;Helvetica&quot; style=&quot;font-size: 19px;&quot;&gt;p&lt;/font&gt;&lt;font face=&quot;Helvetica&quot; style=&quot;font-size: 15.8333px;&quot;&gt;&lt;sub&gt;pred&lt;/sub&gt;&lt;/font&gt;&lt;/pre&gt;" style="strokeWidth=2;html=1;flipH=1;movable=1;resizable=1;rotatable=1;deletable=1;editable=1;locked=0;connectable=1;fillColor=none;strokeColor=none;perimeterSpacing=1;fontStyle=2;rounded=1;perimeter=ellipsePerimeter;spacing=3;snapToPoint=1;backgroundOutline=0;arcSize=0;verticalAlign=bottom;" parent="1" vertex="1">
          <mxGeometry x="93" y="450" width="140" height="50" as="geometry" />
        </mxCell>
        <mxCell id="8" value="&lt;pre&gt;&lt;font face=&quot;Helvetica&quot; style=&quot;font-size: 19px;&quot;&gt;p&lt;/font&gt;&lt;font face=&quot;Helvetica&quot; style=&quot;font-size: 15.8333px;&quot;&gt;&lt;sub&gt;pred&lt;/sub&gt;&lt;/font&gt;&lt;/pre&gt;" style="strokeWidth=2;flipH=1;movable=1;resizable=1;rotatable=1;deletable=1;editable=1;locked=0;connectable=1;html=1;comic=0;treeMoving=0;container=0;fillColor=none;strokeColor=none;perimeterSpacing=1;fontStyle=2;rounded=1;perimeter=ellipsePerimeter;spacing=3;snapToPoint=1;backgroundOutline=0;verticalAlign=bottom;" parent="1" vertex="1">
          <mxGeometry x="288" y="450" width="140" height="50" as="geometry" />
        </mxCell>
        <mxCell id="9" value="&lt;pre&gt;&lt;font face=&quot;Helvetica&quot; style=&quot;font-size: 19px;&quot;&gt;p&lt;/font&gt;&lt;font face=&quot;Helvetica&quot; style=&quot;font-size: 15.8333px;&quot;&gt;&lt;sub&gt;pred&lt;/sub&gt;&lt;/font&gt;&lt;/pre&gt;" style="strokeWidth=0;flipH=1;movable=1;resizable=1;rotatable=1;deletable=1;editable=1;locked=0;connectable=1;fillColor=none;strokeColor=none;html=1;perimeterSpacing=1;fontStyle=2;rounded=1;perimeter=ellipsePerimeter;spacing=3;snapToPoint=1;backgroundOutline=0;verticalAlign=bottom;" parent="1" vertex="1">
          <mxGeometry x="675" y="450" width="140" height="50" as="geometry" />
        </mxCell>
        <mxCell id="10" value="&lt;pre&gt;&lt;font face=&quot;Helvetica&quot; style=&quot;font-size: 19px;&quot;&gt;p&lt;/font&gt;&lt;font face=&quot;Helvetica&quot; style=&quot;font-size: 15.8333px;&quot;&gt;&lt;sub&gt;pred&lt;/sub&gt;&lt;/font&gt;&lt;/pre&gt;" style="strokeWidth=2;flipH=1;movable=1;resizable=1;rotatable=1;deletable=1;editable=1;locked=0;connectable=1;fillColor=none;strokeColor=none;html=1;perimeterSpacing=1;fontStyle=2;rounded=1;perimeter=ellipsePerimeter;spacing=3;snapToPoint=1;backgroundOutline=0;verticalAlign=bottom;" parent="1" vertex="1">
          <mxGeometry x="868" y="450" width="140" height="50" as="geometry" />
        </mxCell>
        <mxCell id="11" value="" style="curved=1;startArrow=none;endArrow=block;exitX=0;exitY=0.72;entryX=0.5;entryY=0;movable=1;resizable=1;rotatable=1;deletable=1;editable=1;locked=0;connectable=1;strokeWidth=3;" parent="1" source="2" target="3" edge="1">
          <mxGeometry relative="1" as="geometry">
            <Array as="points">
              <mxPoint x="218" y="334" />
            </Array>
          </mxGeometry>
        </mxCell>
        <mxCell id="12" value="" style="curved=1;startArrow=none;endArrow=block;exitX=0.13;exitY=1;entryX=0.5;entryY=0;movable=1;resizable=1;rotatable=1;deletable=1;editable=1;locked=0;connectable=1;strokeWidth=3;" parent="1" source="2" target="4" edge="1">
          <mxGeometry relative="1" as="geometry">
            <Array as="points">
              <mxPoint x="435" y="332" />
            </Array>
          </mxGeometry>
        </mxCell>
        <mxCell id="13" value="" style="curved=1;startArrow=none;endArrow=block;exitX=0.87;exitY=1;entryX=0.5;entryY=0;movable=1;resizable=1;rotatable=1;deletable=1;editable=1;locked=0;connectable=1;strokeWidth=3;" parent="1" source="2" target="5" edge="1">
          <mxGeometry relative="1" as="geometry">
            <Array as="points">
              <mxPoint x="680" y="320" />
            </Array>
          </mxGeometry>
        </mxCell>
        <mxCell id="14" value="" style="curved=1;startArrow=none;endArrow=block;exitX=0.99;exitY=0.72;entryX=0.5;entryY=0;movable=1;resizable=1;rotatable=1;deletable=1;editable=1;locked=0;connectable=1;strokeWidth=3;" parent="1" source="2" target="6" edge="1">
          <mxGeometry relative="1" as="geometry">
            <Array as="points">
              <mxPoint x="750" y="300" />
              <mxPoint x="880" y="334" />
            </Array>
          </mxGeometry>
        </mxCell>
        <mxCell id="15" value="" style="curved=1;startArrow=none;endArrow=block;exitX=0.5;exitY=1;entryX=0.5;entryY=0;movable=1;resizable=1;rotatable=1;deletable=1;editable=1;locked=0;connectable=1;strokeWidth=3;" parent="1" source="3" target="7" edge="1">
          <mxGeometry relative="1" as="geometry">
            <Array as="points" />
          </mxGeometry>
        </mxCell>
        <mxCell id="16" value="" style="curved=1;startArrow=none;endArrow=block;exitX=0.5;exitY=1;entryX=0.5;entryY=0;movable=1;resizable=1;rotatable=1;deletable=1;editable=1;locked=0;connectable=1;strokeWidth=3;" parent="1" source="4" target="8" edge="1">
          <mxGeometry relative="1" as="geometry">
            <Array as="points" />
          </mxGeometry>
        </mxCell>
        <mxCell id="17" value="" style="curved=1;startArrow=none;endArrow=block;exitX=0.5;exitY=1;entryX=0.5;entryY=0;movable=1;resizable=1;rotatable=1;deletable=1;editable=1;locked=0;connectable=1;strokeWidth=3;" parent="1" source="5" target="9" edge="1">
          <mxGeometry relative="1" as="geometry">
            <Array as="points" />
          </mxGeometry>
        </mxCell>
        <mxCell id="18" value="" style="curved=1;startArrow=none;endArrow=block;exitX=0.5;exitY=1;entryX=0.5;entryY=0;movable=1;resizable=1;rotatable=1;deletable=1;editable=1;locked=0;connectable=1;strokeWidth=3;" parent="1" source="6" target="10" edge="1">
          <mxGeometry relative="1" as="geometry">
            <Array as="points" />
          </mxGeometry>
        </mxCell>
        <mxCell id="G6jUvV0o-YsME8dWzTxC-20" value="&lt;pre&gt;&lt;font face=&quot;Helvetica&quot; style=&quot;font-size: 19px;&quot;&gt;p&lt;/font&gt;&lt;font face=&quot;Helvetica&quot; style=&quot;font-size: 15.8333px;&quot;&gt;&lt;sub&gt;pred&lt;/sub&gt;&lt;/font&gt;&lt;/pre&gt;" style="strokeWidth=2;html=1;movable=1;resizable=1;rotatable=1;deletable=1;editable=1;locked=0;connectable=1;fillColor=none;strokeColor=none;perimeterSpacing=1;fontStyle=2;rounded=1;perimeter=ellipsePerimeter;arcSize=50;spacing=3;snapToPoint=1;backgroundOutline=0;verticalAlign=bottom;" vertex="1" parent="1">
          <mxGeometry x="479.5" y="450" width="140" height="50" as="geometry" />
        </mxCell>
        <mxCell id="G6jUvV0o-YsME8dWzTxC-26" value="" style="shape=switch;whiteSpace=wrap;html=1;strokeColor=default;strokeWidth=0;align=center;verticalAlign=middle;fontFamily=Helvetica;fontSize=12;fontColor=default;resizable=0;fillColor=default;movable=0;rotatable=0;deletable=0;editable=0;locked=1;connectable=0;" vertex="1" parent="1">
          <mxGeometry x="950" y="440" width="60" height="60" as="geometry" />
        </mxCell>
        <mxCell id="G6jUvV0o-YsME8dWzTxC-27" value="&lt;font style=&quot;font-size: 14px;&quot;&gt;&lt;b&gt;Gating&lt;br&gt;Function&lt;/b&gt;&lt;/font&gt;" style="shape=switch;whiteSpace=wrap;html=1;strokeColor=#ae4132;strokeWidth=4;align=center;verticalAlign=middle;fontFamily=Helvetica;fontSize=12;resizable=1;fillColor=#fad9d5;" vertex="1" parent="1">
          <mxGeometry x="1060" y="492" width="150" height="110" as="geometry" />
        </mxCell>
        <mxCell id="G6jUvV0o-YsME8dWzTxC-44" value="" style="endArrow=halfCircle;html=1;rounded=0;fontFamily=Helvetica;fontSize=12;fontColor=default;resizable=1;orthogonalLoop=1;orthogonal=0;snapToPoint=1;exitX=0.5;exitY=1;exitDx=0;exitDy=0;endFill=0;startArrow=baseDash;startFill=0;strokeWidth=3;" edge="1" parent="1">
          <mxGeometry relative="1" as="geometry">
            <mxPoint x="162.5" y="500" as="sourcePoint" />
            <mxPoint x="162.5" y="589" as="targetPoint" />
          </mxGeometry>
        </mxCell>
        <mxCell id="G6jUvV0o-YsME8dWzTxC-45" value="&lt;i style=&quot;font-size: 15px;&quot;&gt;model weight&lt;/i&gt;" style="edgeLabel;resizable=0;html=1;;align=center;verticalAlign=middle;strokeColor=default;strokeWidth=0;fontFamily=Helvetica;fontSize=15;fontColor=default;fillColor=default;" connectable="0" vertex="1" parent="G6jUvV0o-YsME8dWzTxC-44">
          <mxGeometry relative="1" as="geometry" />
        </mxCell>
        <mxCell id="G6jUvV0o-YsME8dWzTxC-46" value="" style="edgeLabel;resizable=0;html=1;;align=left;verticalAlign=bottom;strokeColor=default;strokeWidth=0;fontFamily=Helvetica;fontSize=12;fontColor=default;fillColor=default;" connectable="0" vertex="1" parent="G6jUvV0o-YsME8dWzTxC-44">
          <mxGeometry x="-1" relative="1" as="geometry" />
        </mxCell>
        <mxCell id="G6jUvV0o-YsME8dWzTxC-47" value="Weighted Score" style="edgeLabel;resizable=0;html=1;;align=right;verticalAlign=bottom;strokeColor=default;strokeWidth=0;fontFamily=Helvetica;fontSize=15;fontColor=default;fillColor=default;connectable=1;snapToPoint=1;imageAlign=center;portConstraint=south;enumerate=0;dropTarget=1;noLabel=0;" connectable="0" vertex="1" parent="G6jUvV0o-YsME8dWzTxC-44">
          <mxGeometry x="1" relative="1" as="geometry">
            <mxPoint x="47" y="30" as="offset" />
          </mxGeometry>
        </mxCell>
        <mxCell id="G6jUvV0o-YsME8dWzTxC-50" value="" style="endArrow=halfCircle;html=1;rounded=0;fontFamily=Helvetica;fontSize=12;fontColor=default;resizable=1;orthogonalLoop=1;orthogonal=0;snapToPoint=1;exitX=0.5;exitY=1;exitDx=0;exitDy=0;endFill=0;startArrow=baseDash;startFill=0;strokeWidth=3;" edge="1" parent="1">
          <mxGeometry relative="1" as="geometry">
            <mxPoint x="357.5" y="500" as="sourcePoint" />
            <mxPoint x="357.5" y="589" as="targetPoint" />
          </mxGeometry>
        </mxCell>
        <mxCell id="G6jUvV0o-YsME8dWzTxC-51" value="&lt;i style=&quot;font-size: 15px;&quot;&gt;model weight&lt;/i&gt;" style="edgeLabel;resizable=0;html=1;;align=center;verticalAlign=middle;strokeColor=default;strokeWidth=0;fontFamily=Helvetica;fontSize=15;fontColor=default;fillColor=default;" connectable="0" vertex="1" parent="G6jUvV0o-YsME8dWzTxC-50">
          <mxGeometry relative="1" as="geometry" />
        </mxCell>
        <mxCell id="G6jUvV0o-YsME8dWzTxC-52" value="" style="edgeLabel;resizable=0;html=1;;align=left;verticalAlign=bottom;strokeColor=default;strokeWidth=0;fontFamily=Helvetica;fontSize=12;fontColor=default;fillColor=default;" connectable="0" vertex="1" parent="G6jUvV0o-YsME8dWzTxC-50">
          <mxGeometry x="-1" relative="1" as="geometry" />
        </mxCell>
        <mxCell id="G6jUvV0o-YsME8dWzTxC-53" value="Weighted Score" style="edgeLabel;resizable=0;html=1;;align=right;verticalAlign=bottom;strokeColor=default;strokeWidth=0;fontFamily=Helvetica;fontSize=15;fontColor=default;fillColor=default;connectable=1;snapToPoint=1;imageAlign=center;portConstraint=south;direction=south;points=[[0,0,0,0,0],[0,0,0,0,50],[0,0.25,0,0,0],[0,0.5,0,0,0],[0,0.75,0,0,0],[0,1,0,0,0],[0.25,0,0,0,0],[0.25,1,0,0,0],[0.5,0,0,0,0],[0.5,1,0,0,0],[0.75,0,0,0,0],[0.75,1,0,0,0],[1,0,0,0,0],[1,0.25,0,0,0],[1,0.5,0,0,0],[1,0.75,0,0,0],[1,1,0,0,0]];" connectable="0" vertex="1" parent="G6jUvV0o-YsME8dWzTxC-50">
          <mxGeometry x="1" relative="1" as="geometry">
            <mxPoint x="47" y="30" as="offset" />
          </mxGeometry>
        </mxCell>
        <mxCell id="G6jUvV0o-YsME8dWzTxC-54" value="" style="endArrow=halfCircle;html=1;rounded=0;fontFamily=Helvetica;fontSize=12;fontColor=default;resizable=1;orthogonalLoop=1;orthogonal=0;snapToPoint=1;exitX=0.5;exitY=1;exitDx=0;exitDy=0;endFill=0;startArrow=baseDash;startFill=0;strokeWidth=3;" edge="1" parent="1">
          <mxGeometry relative="1" as="geometry">
            <mxPoint x="549" y="500" as="sourcePoint" />
            <mxPoint x="549" y="589" as="targetPoint" />
          </mxGeometry>
        </mxCell>
        <mxCell id="G6jUvV0o-YsME8dWzTxC-55" value="&lt;i style=&quot;font-size: 15px;&quot;&gt;model weight&lt;/i&gt;" style="edgeLabel;resizable=0;html=1;;align=center;verticalAlign=middle;strokeColor=default;strokeWidth=0;fontFamily=Helvetica;fontSize=15;fontColor=default;fillColor=default;" connectable="0" vertex="1" parent="G6jUvV0o-YsME8dWzTxC-54">
          <mxGeometry relative="1" as="geometry" />
        </mxCell>
        <mxCell id="G6jUvV0o-YsME8dWzTxC-56" value="" style="edgeLabel;resizable=0;html=1;;align=left;verticalAlign=bottom;strokeColor=default;strokeWidth=0;fontFamily=Helvetica;fontSize=12;fontColor=default;fillColor=default;" connectable="0" vertex="1" parent="G6jUvV0o-YsME8dWzTxC-54">
          <mxGeometry x="-1" relative="1" as="geometry" />
        </mxCell>
        <mxCell id="G6jUvV0o-YsME8dWzTxC-57" value="Weighted Score" style="edgeLabel;resizable=0;html=1;;align=right;verticalAlign=bottom;strokeColor=default;strokeWidth=0;fontFamily=Helvetica;fontSize=15;fontColor=default;fillColor=default;connectable=1;snapToPoint=1;imageAlign=center;portConstraint=south;points=[[0,0,0,-50,0],[0,0,0,0,0],[0,0.25,0,0,0],[0,0.5,0,0,0],[0,0.75,0,0,0],[0,1,0,0,0],[0.25,0,0,0,0],[0.25,1,0,0,0],[0.5,0,0,0,0],[0.5,1,0,0,0],[0.75,0,0,0,0],[0.75,1,0,0,0],[1,0,0,0,0],[1,0.25,0,0,0],[1,0.5,0,0,0],[1,0.75,0,0,0],[1,1,0,0,0]];" connectable="0" vertex="1" parent="G6jUvV0o-YsME8dWzTxC-54">
          <mxGeometry x="1" relative="1" as="geometry">
            <mxPoint x="51" y="31" as="offset" />
          </mxGeometry>
        </mxCell>
        <mxCell id="G6jUvV0o-YsME8dWzTxC-58" value="" style="endArrow=halfCircle;html=1;rounded=0;fontFamily=Helvetica;fontSize=12;fontColor=default;resizable=1;orthogonalLoop=1;orthogonal=0;snapToPoint=1;exitX=0.5;exitY=1;exitDx=0;exitDy=0;endFill=0;startArrow=baseDash;startFill=0;strokeWidth=3;" edge="1" parent="1">
          <mxGeometry relative="1" as="geometry">
            <mxPoint x="744.5" y="500" as="sourcePoint" />
            <mxPoint x="744.5" y="589" as="targetPoint" />
          </mxGeometry>
        </mxCell>
        <mxCell id="G6jUvV0o-YsME8dWzTxC-59" value="&lt;i style=&quot;font-size: 15px;&quot;&gt;model weight&lt;/i&gt;" style="edgeLabel;resizable=0;html=1;;align=center;verticalAlign=middle;strokeColor=default;strokeWidth=0;fontFamily=Helvetica;fontSize=15;fontColor=default;fillColor=default;" connectable="0" vertex="1" parent="G6jUvV0o-YsME8dWzTxC-58">
          <mxGeometry relative="1" as="geometry" />
        </mxCell>
        <mxCell id="G6jUvV0o-YsME8dWzTxC-60" value="" style="edgeLabel;resizable=0;html=1;;align=left;verticalAlign=bottom;strokeColor=default;strokeWidth=0;fontFamily=Helvetica;fontSize=12;fontColor=default;fillColor=default;" connectable="0" vertex="1" parent="G6jUvV0o-YsME8dWzTxC-58">
          <mxGeometry x="-1" relative="1" as="geometry" />
        </mxCell>
        <mxCell id="G6jUvV0o-YsME8dWzTxC-61" value="Weighted Score" style="edgeLabel;resizable=0;html=1;;align=right;verticalAlign=bottom;strokeColor=default;strokeWidth=0;fontFamily=Helvetica;fontSize=15;fontColor=default;fillColor=default;connectable=1;snapToPoint=1;imageAlign=center;portConstraint=south;points=[[0,0,0,-50,0],[0,0,0,0,0],[0,0.25,0,0,0],[0,0.5,0,0,0],[0,0.75,0,0,0],[0,1,0,0,0],[0.25,0,0,0,0],[0.25,1,0,0,0],[0.5,0,0,0,0],[0.5,1,0,0,0],[0.75,0,0,0,0],[0.75,1,0,0,0],[1,0,0,0,0],[1,0.25,0,0,0],[1,0.5,0,0,0],[1,0.75,0,0,0],[1,1,0,0,0]];" connectable="0" vertex="1" parent="G6jUvV0o-YsME8dWzTxC-58">
          <mxGeometry x="1" relative="1" as="geometry">
            <mxPoint x="47" y="30" as="offset" />
          </mxGeometry>
        </mxCell>
        <mxCell id="G6jUvV0o-YsME8dWzTxC-62" value="" style="endArrow=halfCircle;html=1;rounded=0;fontFamily=Helvetica;fontSize=12;fontColor=default;resizable=1;orthogonalLoop=1;orthogonal=0;snapToPoint=1;exitX=0.5;exitY=1;exitDx=0;exitDy=0;noJump=1;endFill=0;startArrow=baseDash;startFill=0;strokeWidth=3;" edge="1" parent="1">
          <mxGeometry relative="1" as="geometry">
            <mxPoint x="937.5" y="500" as="sourcePoint" />
            <mxPoint x="937.5" y="589" as="targetPoint" />
          </mxGeometry>
        </mxCell>
        <mxCell id="G6jUvV0o-YsME8dWzTxC-63" value="&lt;i style=&quot;font-size: 15px;&quot;&gt;model weight&lt;/i&gt;" style="edgeLabel;resizable=0;html=1;;align=center;verticalAlign=middle;strokeColor=default;strokeWidth=0;fontFamily=Helvetica;fontSize=15;fontColor=default;fillColor=default;snapToPoint=1;connectable=1;" connectable="0" vertex="1" parent="G6jUvV0o-YsME8dWzTxC-62">
          <mxGeometry relative="1" as="geometry" />
        </mxCell>
        <mxCell id="G6jUvV0o-YsME8dWzTxC-64" value="" style="edgeLabel;resizable=0;html=1;;align=left;verticalAlign=bottom;strokeColor=default;strokeWidth=0;fontFamily=Helvetica;fontSize=12;fontColor=default;fillColor=default;" connectable="0" vertex="1" parent="G6jUvV0o-YsME8dWzTxC-62">
          <mxGeometry x="-1" relative="1" as="geometry" />
        </mxCell>
        <mxCell id="G6jUvV0o-YsME8dWzTxC-65" value="Weighted Score" style="edgeLabel;resizable=0;html=1;;align=right;verticalAlign=bottom;strokeColor=default;strokeWidth=0;fontFamily=Helvetica;fontSize=15;fontColor=default;fillColor=default;connectable=1;snapToPoint=1;imageAlign=center;portConstraint=south;points=[[0,0,0,-50,0],[0,0,0,0,0],[0,0.25,0,0,0],[0,0.5,0,0,0],[0,0.75,0,0,0],[0,1,0,0,0],[0.25,0,0,0,0],[0.25,1,0,0,0],[0.5,0,0,0,0],[0.5,1,0,0,0],[0.75,0,0,0,0],[0.75,1,0,0,0],[1,0,0,0,0],[1,0.25,0,0,0],[1,0.5,0,0,0],[1,0.75,0,0,0],[1,1,0,0,0]];" connectable="0" vertex="1" parent="G6jUvV0o-YsME8dWzTxC-62">
          <mxGeometry x="1" relative="1" as="geometry">
            <mxPoint x="47" y="30" as="offset" />
          </mxGeometry>
        </mxCell>
        <mxCell id="G6jUvV0o-YsME8dWzTxC-78" style="edgeStyle=orthogonalEdgeStyle;rounded=0;orthogonalLoop=1;jettySize=auto;html=1;exitX=1;exitY=0.5;exitDx=0;exitDy=0;entryX=0.25;entryY=0.5;entryDx=0;entryDy=0;entryPerimeter=0;fontFamily=Helvetica;fontSize=12;fontColor=default;labelBackgroundColor=default;resizable=0;strokeWidth=4;startArrow=classicThin;startFill=0;endArrow=halfCircle;endFill=0;" edge="1" parent="1" source="G6jUvV0o-YsME8dWzTxC-77" target="G6jUvV0o-YsME8dWzTxC-27">
          <mxGeometry relative="1" as="geometry" />
        </mxCell>
        <mxCell id="G6jUvV0o-YsME8dWzTxC-94" value="" style="edgeStyle=orthogonalEdgeStyle;rounded=0;orthogonalLoop=1;jettySize=auto;html=1;fontFamily=Helvetica;fontSize=14;fontColor=default;labelBackgroundColor=default;resizable=0;strokeWidth=3;" edge="1" parent="1" source="G6jUvV0o-YsME8dWzTxC-79" target="G6jUvV0o-YsME8dWzTxC-93">
          <mxGeometry relative="1" as="geometry" />
        </mxCell>
        <mxCell id="G6jUvV0o-YsME8dWzTxC-79" value="&lt;font style=&quot;font-size: 15px;&quot;&gt;Activation Function&lt;/font&gt;" style="verticalLabelPosition=bottom;verticalAlign=middle;html=1;shape=mxgraph.flowchart.or;strokeColor=default;strokeWidth=3;align=center;fontFamily=Helvetica;fontSize=15;fontColor=default;labelBackgroundColor=default;resizable=1;fillColor=default;gradientColor=none;fontStyle=1" vertex="1" parent="1">
          <mxGeometry x="524.5" y="690" width="50" height="50" as="geometry" />
        </mxCell>
        <mxCell id="G6jUvV0o-YsME8dWzTxC-85" style="edgeStyle=orthogonalEdgeStyle;rounded=0;orthogonalLoop=1;jettySize=auto;html=1;exitX=0;exitY=0;exitDx=-50;exitDy=0;exitPerimeter=0;entryX=0;entryY=0.5;entryDx=0;entryDy=0;entryPerimeter=0;fontFamily=Helvetica;fontSize=12;fontColor=default;labelBackgroundColor=default;resizable=0;startArrow=diamondThin;startFill=1;elbow=vertical;jumpStyle=line;strokeWidth=2;curved=1;endArrow=oval;endFill=1;" edge="1" parent="1" source="G6jUvV0o-YsME8dWzTxC-47" target="G6jUvV0o-YsME8dWzTxC-79">
          <mxGeometry relative="1" as="geometry">
            <Array as="points">
              <mxPoint x="160" y="667" />
              <mxPoint x="525" y="667" />
            </Array>
          </mxGeometry>
        </mxCell>
        <mxCell id="G6jUvV0o-YsME8dWzTxC-87" style="edgeStyle=orthogonalEdgeStyle;rounded=0;orthogonalLoop=1;jettySize=auto;html=1;exitX=0;exitY=0;exitDx=0;exitDy=50;exitPerimeter=0;fontFamily=Helvetica;fontSize=12;fontColor=default;labelBackgroundColor=default;resizable=0;startArrow=diamondThin;startFill=1;elbow=vertical;jumpStyle=line;strokeWidth=2;entryX=0.145;entryY=0.145;entryDx=0;entryDy=0;entryPerimeter=0;curved=1;endArrow=oval;endFill=1;" edge="1" parent="1" source="G6jUvV0o-YsME8dWzTxC-53" target="G6jUvV0o-YsME8dWzTxC-79">
          <mxGeometry relative="1" as="geometry">
            <mxPoint x="170" y="629" as="sourcePoint" />
            <mxPoint x="550" y="680" as="targetPoint" />
            <Array as="points">
              <mxPoint x="355" y="658" />
              <mxPoint x="532" y="658" />
            </Array>
          </mxGeometry>
        </mxCell>
        <mxCell id="G6jUvV0o-YsME8dWzTxC-88" style="edgeStyle=orthogonalEdgeStyle;rounded=0;orthogonalLoop=1;jettySize=auto;html=1;entryX=0.855;entryY=0.145;entryDx=0;entryDy=0;entryPerimeter=0;fontFamily=Helvetica;fontSize=12;fontColor=default;labelBackgroundColor=default;resizable=0;startArrow=diamondThin;startFill=1;elbow=vertical;jumpStyle=line;strokeWidth=2;exitX=0;exitY=0;exitDx=-50;exitDy=0;exitPerimeter=0;curved=1;endArrow=oval;endFill=1;" edge="1" parent="1" source="G6jUvV0o-YsME8dWzTxC-61" target="G6jUvV0o-YsME8dWzTxC-79">
          <mxGeometry relative="1" as="geometry">
            <mxPoint x="770" y="660" as="sourcePoint" />
            <mxPoint x="570" y="710" as="targetPoint" />
            <Array as="points">
              <mxPoint x="742" y="658" />
              <mxPoint x="567" y="658" />
            </Array>
          </mxGeometry>
        </mxCell>
        <mxCell id="G6jUvV0o-YsME8dWzTxC-89" style="edgeStyle=orthogonalEdgeStyle;rounded=0;orthogonalLoop=1;jettySize=auto;html=1;exitX=0;exitY=0;exitDx=-50;exitDy=0;exitPerimeter=0;entryX=1;entryY=0.5;entryDx=0;entryDy=0;entryPerimeter=0;fontFamily=Helvetica;fontSize=12;fontColor=default;labelBackgroundColor=default;resizable=0;startArrow=diamondThin;startFill=1;elbow=vertical;jumpStyle=arc;strokeWidth=2;curved=1;endArrow=oval;endFill=1;" edge="1" parent="1" source="G6jUvV0o-YsME8dWzTxC-65" target="G6jUvV0o-YsME8dWzTxC-79">
          <mxGeometry relative="1" as="geometry">
            <mxPoint x="190" y="649" as="sourcePoint" />
            <mxPoint x="580" y="720" as="targetPoint" />
            <Array as="points">
              <mxPoint x="935" y="667" />
              <mxPoint x="575" y="667" />
            </Array>
          </mxGeometry>
        </mxCell>
        <mxCell id="G6jUvV0o-YsME8dWzTxC-92" style="edgeStyle=elbowEdgeStyle;rounded=0;orthogonalLoop=1;jettySize=auto;html=1;exitX=0;exitY=0;exitDx=-50;exitDy=0;exitPerimeter=0;entryX=0.5;entryY=0;entryDx=0;entryDy=0;entryPerimeter=0;fontFamily=Helvetica;fontSize=12;fontColor=default;labelBackgroundColor=default;resizable=0;startArrow=diamondThin;startFill=1;elbow=vertical;jumpStyle=line;strokeWidth=2;endArrow=oval;endFill=1;" edge="1" parent="1" source="G6jUvV0o-YsME8dWzTxC-57" target="G6jUvV0o-YsME8dWzTxC-79">
          <mxGeometry relative="1" as="geometry">
            <mxPoint x="945" y="629" as="sourcePoint" />
            <mxPoint x="560" y="700" as="targetPoint" />
          </mxGeometry>
        </mxCell>
        <mxCell id="G6jUvV0o-YsME8dWzTxC-93" value="&lt;font style=&quot;font-size: 18px;&quot;&gt;&lt;b&gt;Prediction&lt;/b&gt;&lt;/font&gt;" style="rhombus;whiteSpace=wrap;html=1;verticalAlign=middle;strokeWidth=3;labelBackgroundColor=default;resizable=1;gradientColor=none;align=center;" vertex="1" parent="1">
          <mxGeometry x="527.38" y="800" width="45.25" height="40" as="geometry" />
        </mxCell>
      </root>
    </mxGraphModel>
  </diagram>
  <diagram id="jyDQF6YIYLc6kaXQ3VJT" name="Local Expert Training">
    <mxGraphModel dx="1372" dy="637" grid="1" gridSize="10" guides="1" tooltips="1" connect="1" arrows="1" fold="1" page="1" pageScale="1" pageWidth="1400" pageHeight="850" math="1" shadow="0">
      <root>
        <mxCell id="0" />
        <mxCell id="1" parent="0" />
        <mxCell id="kjuzSuK3poTIfEvCg3Jv-6" value="" style="edgeStyle=orthogonalEdgeStyle;rounded=0;orthogonalLoop=1;jettySize=auto;html=1;fontFamily=Helvetica;fontSize=12;fontColor=default;labelBackgroundColor=default;resizable=0;" edge="1" parent="1" source="uefe90epqsDSIWojjj65-1" target="kjuzSuK3poTIfEvCg3Jv-5">
          <mxGeometry relative="1" as="geometry" />
        </mxCell>
        <mxCell id="uefe90epqsDSIWojjj65-1" value="Parallel Mode" style="verticalLabelPosition=bottom;verticalAlign=top;html=1;shape=mxgraph.flowchart.parallel_mode;pointerEvents=1;strokeWidth=0;align=center;fontFamily=Helvetica;fontSize=12;labelBackgroundColor=default;resizable=0;" vertex="1" parent="1">
          <mxGeometry x="240" y="365" width="95" height="40" as="geometry" />
        </mxCell>
        <mxCell id="kjuzSuK3poTIfEvCg3Jv-4" value="" style="edgeStyle=orthogonalEdgeStyle;rounded=0;orthogonalLoop=1;jettySize=auto;html=1;fontFamily=Helvetica;fontSize=12;fontColor=default;labelBackgroundColor=default;resizable=0;" edge="1" parent="1" source="kjuzSuK3poTIfEvCg3Jv-3" target="uefe90epqsDSIWojjj65-1">
          <mxGeometry relative="1" as="geometry" />
        </mxCell>
        <mxCell id="kjuzSuK3poTIfEvCg3Jv-3" value="" style="strokeWidth=2;html=1;shape=mxgraph.flowchart.direct_data;whiteSpace=wrap;strokeColor=default;align=right;verticalAlign=bottom;fontFamily=Helvetica;fontSize=12;fontColor=default;labelBackgroundColor=default;resizable=0;fillColor=default;gradientColor=none;" vertex="1" parent="1">
          <mxGeometry x="70" y="355" width="100" height="60" as="geometry" />
        </mxCell>
        <mxCell id="kjuzSuK3poTIfEvCg3Jv-9" value="" style="edgeStyle=orthogonalEdgeStyle;rounded=0;orthogonalLoop=1;jettySize=auto;html=1;fontFamily=Helvetica;fontSize=12;fontColor=default;labelBackgroundColor=default;resizable=0;" edge="1" parent="1" source="kjuzSuK3poTIfEvCg3Jv-5" target="kjuzSuK3poTIfEvCg3Jv-8">
          <mxGeometry relative="1" as="geometry" />
        </mxCell>
        <mxCell id="kjuzSuK3poTIfEvCg3Jv-11" value="" style="edgeStyle=orthogonalEdgeStyle;rounded=0;orthogonalLoop=1;jettySize=auto;html=1;fontFamily=Helvetica;fontSize=12;fontColor=default;labelBackgroundColor=default;resizable=0;entryX=0.5;entryY=0;entryDx=0;entryDy=0;jumpStyle=sharp;strokeWidth=3;" edge="1" parent="1" source="kjuzSuK3poTIfEvCg3Jv-5" target="kjuzSuK3poTIfEvCg3Jv-14">
          <mxGeometry relative="1" as="geometry">
            <mxPoint x="520.0000000000002" y="480" as="targetPoint" />
          </mxGeometry>
        </mxCell>
        <mxCell id="kjuzSuK3poTIfEvCg3Jv-5" value="&lt;div&gt;Calculate&lt;/div&gt;" style="shape=process;whiteSpace=wrap;html=1;backgroundOutline=1;verticalAlign=top;pointerEvents=1;strokeWidth=0;labelBackgroundColor=default;resizable=1;" vertex="1" parent="1">
          <mxGeometry x="402.5" y="310" width="247.5" height="150" as="geometry" />
        </mxCell>
        <mxCell id="kjuzSuK3poTIfEvCg3Jv-8" value="Calculate Weights&lt;div&gt;Train Model&lt;/div&gt;&lt;div&gt;&lt;span style=&quot;white-space: pre;&quot;&gt;&#x9;&lt;/span&gt;Add Features + Score&lt;br&gt;&lt;/div&gt;&lt;div&gt;Eliminate Features + Score&lt;/div&gt;&lt;div&gt;Terminate Selection&lt;/div&gt;&lt;div&gt;Select Best Subset / Model&lt;/div&gt;&lt;div&gt;Loop&lt;span style=&quot;white-space: pre;&quot;&gt;&#x9;&lt;/span&gt;&lt;br&gt;&lt;/div&gt;" style="shape=process;whiteSpace=wrap;html=1;backgroundOutline=1;verticalAlign=top;pointerEvents=1;strokeWidth=0;labelBackgroundColor=default;resizable=1;" vertex="1" parent="1">
          <mxGeometry x="402.5" y="80" width="247.5" height="150" as="geometry" />
        </mxCell>
        <mxCell id="kjuzSuK3poTIfEvCg3Jv-14" value="Train Model" style="swimlane;startSize=20;strokeColor=default;strokeWidth=1;align=center;verticalAlign=bottom;fontFamily=Helvetica;fontSize=12;fontColor=default;labelBackgroundColor=default;resizable=1;fillColor=default;gradientColor=none;rotation=0;" vertex="1" parent="1">
          <mxGeometry x="350" y="520" width="346.25" height="310" as="geometry" />
        </mxCell>
        <mxCell id="kjuzSuK3poTIfEvCg3Jv-19" value="" style="edgeStyle=orthogonalEdgeStyle;rounded=0;orthogonalLoop=1;jettySize=auto;html=1;fontFamily=Helvetica;fontSize=12;fontColor=default;labelBackgroundColor=default;resizable=0;" edge="1" parent="kjuzSuK3poTIfEvCg3Jv-14" source="kjuzSuK3poTIfEvCg3Jv-15" target="kjuzSuK3poTIfEvCg3Jv-18">
          <mxGeometry relative="1" as="geometry" />
        </mxCell>
        <mxCell id="kjuzSuK3poTIfEvCg3Jv-15" value="Add Features&lt;hr&gt;Score" style="rounded=1;whiteSpace=wrap;html=1;absoluteArcSize=1;arcSize=14;strokeWidth=2;strokeColor=default;align=center;verticalAlign=middle;fontFamily=Helvetica;fontSize=12;fontColor=default;labelBackgroundColor=default;resizable=0;fillColor=default;gradientColor=none;fontStyle=1" vertex="1" parent="kjuzSuK3poTIfEvCg3Jv-14">
          <mxGeometry x="26" y="40" width="100" height="100" as="geometry" />
        </mxCell>
        <mxCell id="kjuzSuK3poTIfEvCg3Jv-21" value="" style="edgeStyle=orthogonalEdgeStyle;rounded=0;orthogonalLoop=1;jettySize=auto;html=1;fontFamily=Helvetica;fontSize=12;fontColor=default;labelBackgroundColor=default;resizable=0;" edge="1" parent="kjuzSuK3poTIfEvCg3Jv-14" source="kjuzSuK3poTIfEvCg3Jv-18" target="kjuzSuK3poTIfEvCg3Jv-20">
          <mxGeometry relative="1" as="geometry" />
        </mxCell>
        <mxCell id="kjuzSuK3poTIfEvCg3Jv-18" value="Accept?" style="rhombus;whiteSpace=wrap;html=1;align=center;verticalAlign=middle;rounded=1;arcSize=14;strokeWidth=2;labelBackgroundColor=default;resizable=0;gradientColor=none;fontStyle=1" vertex="1" parent="kjuzSuK3poTIfEvCg3Jv-14">
          <mxGeometry x="216" y="50" width="80" height="80" as="geometry" />
        </mxCell>
        <mxCell id="kjuzSuK3poTIfEvCg3Jv-23" value="" style="edgeStyle=orthogonalEdgeStyle;rounded=0;orthogonalLoop=1;jettySize=auto;html=1;fontFamily=Helvetica;fontSize=12;fontColor=default;labelBackgroundColor=default;resizable=0;" edge="1" parent="kjuzSuK3poTIfEvCg3Jv-14" source="kjuzSuK3poTIfEvCg3Jv-20" target="kjuzSuK3poTIfEvCg3Jv-22">
          <mxGeometry relative="1" as="geometry" />
        </mxCell>
        <mxCell id="kjuzSuK3poTIfEvCg3Jv-20" value="Remove Feature(s)&lt;hr&gt;Score" style="whiteSpace=wrap;html=1;align=center;verticalAlign=middle;rounded=1;arcSize=14;strokeWidth=2;labelBackgroundColor=default;resizable=0;gradientColor=none;fontStyle=1" vertex="1" parent="kjuzSuK3poTIfEvCg3Jv-14">
          <mxGeometry x="196" y="220" width="120" height="60" as="geometry" />
        </mxCell>
        <mxCell id="kjuzSuK3poTIfEvCg3Jv-24" style="edgeStyle=orthogonalEdgeStyle;rounded=0;orthogonalLoop=1;jettySize=auto;html=1;exitX=0.5;exitY=0;exitDx=0;exitDy=0;exitPerimeter=0;entryX=0.5;entryY=1;entryDx=0;entryDy=0;fontFamily=Helvetica;fontSize=12;fontColor=default;labelBackgroundColor=default;resizable=0;" edge="1" parent="kjuzSuK3poTIfEvCg3Jv-14" source="kjuzSuK3poTIfEvCg3Jv-22" target="kjuzSuK3poTIfEvCg3Jv-15">
          <mxGeometry relative="1" as="geometry" />
        </mxCell>
        <mxCell id="kjuzSuK3poTIfEvCg3Jv-22" value="Accept?" style="rhombus;whiteSpace=wrap;html=1;align=center;verticalAlign=middle;rounded=1;arcSize=14;strokeWidth=2;labelBackgroundColor=default;resizable=0;gradientColor=none;points=[[0,0,0,0,0],[0,0.5,0,0,0],[0,1,0,0,0],[0.5,0,0,0,0],[0.5,1,0,0,0],[1,0,0,0,0],[1,0.5,0,0,0],[1,1,0,0,0]];fontStyle=1" vertex="1" parent="kjuzSuK3poTIfEvCg3Jv-14">
          <mxGeometry x="36" y="210" width="80" height="80" as="geometry" />
        </mxCell>
      </root>
    </mxGraphModel>
  </diagram>
</mxfile>
